<svg xmlns="http://www.w3.org/2000/svg" x="0px" y="0px" width="100" height="100" viewBox="0 0 48 48">
	<path d="M 24 3 C 12.413593 3 3 12.413593 3 24 C 3 33.784404 9.7032315 42.022293 18.777344 44.345703 A 1.0001 1.0001 0 0 0 19.990234 43.640625 C 19.990234 43.640625 21.170252 39.304865 22.322266 35.033203 C 23.51629 35.660247 24.798383 35.966797 26.017578 35.966797 C 32.211558 35.966797 36.931641 30.670368 36.931641 23.789062 C 36.931641 17.073101 31.369063 12 24.414062 12 C 15.903586 12 11.072266 17.928415 11.072266 24.304688 C 11.072266 26.924975 12.14398 29.910889 14.208984 31.652344 A 1.0001 1.0001 0 1 0 15.498047 30.123047 C 14.091051 28.936502 13.072266 26.3244 13.072266 24.304688 C 13.072266 18.89696 16.79854 14 24.414062 14 C 30.419062 14 34.931641 18.161024 34.931641 23.789062 C 34.931641 29.783758 31.089598 33.966797 26.017578 33.966797 C 24.450706 33.966797 22.692814 33.31221 21.394531 31.783203 C 20.096248 30.254196 19.202453 27.810951 19.525391 24.0625 C 19.632649 22.818933 20.003304 21.76645 20.488281 21.091797 C 20.973258 20.417144 21.490111 20.119141 22.146484 20.119141 C 22.700629 20.119141 22.974545 20.283446 23.216797 20.703125 C 23.459049 21.122804 23.606863 21.902704 23.398438 23.015625 C 23.328467 23.387591 22.703488 25.846181 21.935547 28.742188 A 1.0003304 1.0003304 0 1 0 23.869141 29.255859 C 24.638954 26.352793 25.224874 24.130066 25.365234 23.382812 C 25.633807 21.948733 25.516967 20.686696 24.949219 19.703125 C 24.381471 18.719554 23.29934 18.119141 22.146484 18.119141 C 20.796858 18.119141 19.626054 18.862731 18.863281 19.923828 C 18.100508 20.984925 17.664945 22.363192 17.533203 23.890625 C 17.176141 28.035174 18.178627 31.084882 19.871094 33.078125 C 20.096547 33.343645 20.334053 33.587416 20.580078 33.814453 C 19.481511 37.895685 18.562379 41.267518 18.339844 42.083984 C 10.625603 39.668727 5 32.522799 5 24 C 5 13.494407 13.494407 5 24 5 C 34.505593 5 43 13.494407 43 24 C 43 34.505593 34.505593 43 24 43 A 1.0001 1.0001 0 1 0 24 45 C 35.586407 45 45 35.586407 45 24 C 45 12.413593 35.586407 3 24 3 z">
	</path>
</svg>
