<svg xmlns="http://www.w3.org/2000/svg" x="0px" y="0px" width="100" height="100" viewBox="0 0 48 48">
	<path d="M 32.513672 5.6816406 C 27.009085 5.6816406 22.517578 10.129325 22.517578 15.597656 C 22.517578 15.888507 22.590194 16.160442 22.615234 16.445312 C 15.927602 15.781188 10.004203 12.560873 5.984375 7.6738281 A 1.0001 1.0001 0 0 0 4.3515625 7.8007812 C 3.4823467 9.2714187 2.9941406 10.991057 2.9941406 12.798828 C 2.9941406 14.864653 3.6875754 16.744107 4.7792969 18.335938 C 4.660164 18.27845 4.5084701 18.29318 4.3925781 18.230469 A 1.0001 1.0001 0 0 0 2.9160156 19.109375 L 2.9160156 19.214844 C 2.9160156 22.488426 4.5918865 25.308058 7.0585938 27.115234 A 1.0001 1.0001 0 0 0 6.1191406 28.423828 C 7.3948558 32.361276 11.089815 35.223251 15.451172 35.308594 A 1.0001907 1.0001907 0 1 0 15.490234 33.308594 C 12.576221 33.251574 10.121175 31.612823 8.7675781 29.279297 C 9.6786666 29.279112 10.559548 29.152329 11.392578 28.923828 A 1.0001 1.0001 0 0 0 11.324219 26.978516 C 8.1638905 26.348909 5.7945708 23.8375 5.1796875 20.693359 C 6.0649261 20.982465 6.9878986 21.190898 7.9648438 21.220703 A 1.0001 1.0001 0 0 0 8.5488281 19.388672 C 6.3984714 17.960735 4.9941406 15.552633 4.9941406 12.798828 C 4.9941406 11.822381 5.2260829 10.91049 5.5527344 10.044922 C 10.128678 14.983053 16.500924 18.267592 23.703125 18.628906 A 1.0001 1.0001 0 0 0 24.726562 17.404297 C 24.589934 16.815808 24.517578 16.216225 24.517578 15.597656 C 24.517578 11.219988 28.080259 7.6816406 32.513672 7.6816406 C 34.82313 7.6816406 36.890594 8.639537 38.34375 10.179688 A 1.0001 1.0001 0 0 0 39.261719 10.476562 C 40.365602 10.26376 41.432793 9.9476733 42.458984 9.5527344 C 41.862188 10.291452 41.138229 10.927348 40.318359 11.414062 A 1.0001 1.0001 0 0 0 40.951172 13.265625 C 42.032887 13.132202 42.479896 12.881045 43.308594 12.681641 C 42.588959 13.394555 41.798851 14.047232 40.933594 14.658203 A 1.0001 1.0001 0 1 0 42.085938 16.292969 C 43.925252 14.994199 45.549515 13.47508 46.832031 11.556641 A 1.0001 1.0001 0 0 0 45.595703 10.085938 C 45.356569 10.191814 44.600626 10.297847 44.236328 10.417969 C 44.860137 9.5702262 45.408972 8.6589893 45.738281 7.6386719 A 1.0001 1.0001 0 0 0 44.28125 6.46875 C 42.73887 7.3725368 41.032692 8.0238699 39.234375 8.4121094 C 37.451596 6.7692592 35.129612 5.6816406 32.513672 5.6816406 z M 41.404297 18.011719 A 1.0001 1.0001 0 0 0 40.421875 18.925781 C 39.338845 29.625623 30.864732 41 15.943359 41 C 12.576308 41 9.4801093 40.126709 6.5585938 38.912109 C 8.2173396 38.715845 9.8348316 38.388366 11.335938 37.798828 A 1.000123 1.000123 0 1 0 10.603516 35.9375 C 8.6522972 36.703814 6.5283426 37.126953 4.2988281 37.126953 C 3.6083739 37.126953 2.934742 37.086643 2.2734375 37.005859 A 1.0001 1.0001 0 0 0 1.6171875 38.84375 C 5.7543028 41.463715 10.672282 43 15.943359 43 C 31.885987 43 41.23714 30.735111 42.412109 19.126953 A 1.0001 1.0001 0 0 0 41.404297 18.011719 z">
	</path>
</svg>
